<?xml version="1.0" encoding="utf-8"?>
<!-- Generator: Adobe Illustrator 16.0.0, SVG Export Plug-In . SVG Version: 6.00 Build 0)  -->
<!DOCTYPE svg PUBLIC "-//W3C//DTD SVG 1.1//EN" "http://www.w3.org/Graphics/SVG/1.1/DTD/svg11.dtd">
<svg version="1.1" id="Layer_1" xmlns="http://www.w3.org/2000/svg" xmlns:xlink="http://www.w3.org/1999/xlink" x="0px" y="0px"
	 width="1000px" height="1000px" viewBox="0 0 1000 1000" enable-background="new 0 0 1000 1000" xml:space="preserve">
<g>
	<g>
		<path d="M534.668,426.729c-0.495-0.635-0.741-2.083-0.859-3.777c-0.118-1.692-0.106-3.629-0.085-5.24
			c-0.044-10.352-8.295-23.927-20.671-23.927c2.062,0,4.125,0,5.463-1.139c1.311-0.156,2.045-0.549,2.964-0.97
			c0.367-0.609,0.87-1.268,1.527-1.985c0.8-1.569,1.485-3.123,2.066-4.717c2.475-6.655,2.965-14.065,1.074-20.725
			c-0.378-1.331-0.852-2.632-1.435-3.872c-3.497-2.195-5.575-5.971-7.216-10.12c-0.545-1.383-1.04-2.836-1.517-4.389
			c-2.928-8.643-2.928-26.742-15.305-22.217c-6.189,2.262-6.189,13.574-11.621,21.488c-0.651,1.2-1.365,2.365-2.177,3.478
			c-0.811,1.112-1.719,2.172-2.756,3.14c-1.19,1.146-2.293,2.287-3.327,3.584c-3.468,6.779-6.749,15.259-7.874,23.741
			c-0.201,1.739-0.316,3.479-0.307,5.247c1.244,9.456,1.244,20.768,5.371,23.031c10.313,6.787,4.125-20.362,19.469-14.528
			c1.607,0.463,2.414,1.839,3.333,3.093c-6.301,9.172-2.175,20.484-2.175,29.534c-2.063-2.263-6.188-6.787-7.548-8.556
			c-0.924,0.967-1.859,1.921-2.798,2.875c-4.689,4.768-9.411,9.51-12.665,15.601c-0.446,1.286-0.808,2.597-1.062,3.923
			c-0.085,1.381-0.159,2.801-0.207,4.237c-0.051,1.437-0.073,2.891-0.057,4.341c0.37,3.1,0.553,6.648,0.73,10.337
			c0.06,1.229,0.118,2.475,0.18,3.724c0.429,10.394-2.902,22.422-3.296,33.784c-0.056,1.625-0.052,3.234,0.031,4.83
			c1.937,13.139,6.063,24.45,18.439,15.4c12.377-6.787,8.251-24.886,8.005-38.483c-0.106-1.419-0.153-2.837-0.108-4.233
			c0.046-1.395,0.187-2.768,0.457-4.095c1.023-1.417,2.183-2.691,3.541-3.694c1.351-0.757,2.66-1.171,3.919-1.3
			s2.467,0.028,3.611,0.416c1.182,0.768,2.214,1.624,3.116,2.565c0.633,1.262,1.183,2.557,1.662,3.879
			c0.484,1.443,0.896,2.898,1.256,4.466c0.821,2.339,1.474,4.734,1.989,7.171c0.259,1.217,0.482,2.445,0.682,3.682
			c0.75,11.528,0.75,20.578,0.837,32.233c-0.025,1.09-0.048,2.173-0.064,3.247c-0.014,1.075-0.022,2.141-0.022,3.196
			c10.313-15.837,4.125-36.198,9.288-53.192c0.336-1.592,0.715-3.17,1.152-4.723c0.438-1.554,0.937-3.082,1.514-4.581
			c0.194-1.254,0.42-2.484,0.714-3.688c0.127-1.266,0.237-2.537,0.339-3.83c0.113-1.271,0.219-2.566,0.341-3.885
			c0.153-1.77,0.257-3.488,0.325-5.241c0.315-4.979,0.353-10.146,1.343-14.849C534.433,429.48,534.568,428.052,534.668,426.729z
			 M503.421,386.488c-1.129-0.708-2.268-1.345-3.396-1.982c-1.131-0.637-2.245-1.308-3.344-1.976
			c-3.16-1.159-6.287-2.87-8.181-5.505c-0.631-0.878-1.124-1.859-1.437-2.956c-0.137-1.616-0.139-3.15-0.017-4.616
			c0.208-1.601,0.497-3.186,0.862-4.727c0.363-1.54,0.804-3.037,1.317-4.461c0.533-1.201,1.091-2.578,1.69-4.019
			c0.601-1.441,1.239-2.946,1.934-4.401c3.699-3.307,5.762-12.357,11.949-10.094c4.127,2.262,4.127,6.787,6.622,10.896
			c0.487,1.369,0.909,2.818,1.279,4.288c0.741,2.942,1.281,5.972,1.746,8.631c0.32,1.636,0.563,3.25,0.738,4.773
			c0.176,1.524,0.285,2.958,0.336,4.232c-0.148,1.516-0.515,3.069-1.119,4.641c-0.221,0.962-0.486,1.916-0.798,2.877
			c-0.31,0.962-0.666,1.932-1.064,2.929c-1.552,1.98-1.552,4.243-3.613,6.505c0,0-2.063-2.262-2.331-2.936
			C505.539,387.863,504.482,387.155,503.421,386.488z M526.881,428.888c-1.452,1.096-3.515,3.358-5.639,6.131
			c-0.485,0.845-0.953,1.675-1.405,2.492c-0.904,1.636-1.869,3.286-2.895,4.946c-0.681,1.109-1.388,2.223-2.12,3.34
			c-3.834,2.285-3.834,9.073-7.798,9c-1.086,0.695-2.217,1.301-3.395,1.8c-0.733,1.253-1.546,2.063-2.382,2.601
			c-2.506,1.611-5.214,0.763-6.762,2.46c-8.594,1.886-8.594-7.228-8.653-13.798c-0.011-1.313-0.025-2.526-0.11-3.528
			c0.05-1.887,0.282-3.608,0.666-5.187s0.921-3.015,1.58-4.331c3.342-1.926,4.177-6.225,6.099-8.21
			c0.356-0.271,0.822-0.335,1.568-0.007c9.164,12.437,29.793,3.387,25.667-10.188c-2.062-9.049-6.188-2.262-12.376-2.262
			c-6.188,0,0-9.05,2.062-11.312c6.189-2.263,16.503,0,18.566,9.049c0,4.525,2.063,9.05-1.288,13.958
			C527.881,426.858,527.412,427.877,526.881,428.888z"/>
		<path d="M477.712,583.588c-1.811-1.373-5.432-1.373-8.145-1.285c-0.957,0.066-1.885,0.232-2.731,0.473
			c-0.903,0.891-1.804,1.215-2.694,1.223c-2.674,0.031-5.252-2.764-7.421-1.588c0.11-0.844,0.217-1.682,0.321-2.521
			c4.107-15.826,1.183-30.08,2.291-45.367c0.074-1.02,0.166-2.041,0.279-3.066c1.811-6.865,1.811-12.354,2.195-19.402
			c-0.065-0.74-0.172-1.475-0.334-2.197c-0.324-1.445-0.865-2.834-1.739-4.117c-0.462-0.898-0.941-1.785-1.405-2.658
			c-2.788-5.246-5.051-10.047-0.526-14.164c8.444-7.316,4.825-14.635,3.049-22.145c-0.224-0.938-0.417-1.881-0.554-2.824
			c2.935-10.705,1.125-21.682-7.505-31.519c-0.045-0.55,0.125-1.105,0.601-1.677c0.476-0.572,1.258-1.159,2.438-1.773
			c1.006-0.823,1.883-1.612,2.642-2.401c9.119-9.462,1.146-19.24,1.191-31.25c0.1-0.723,0.206-1.441,0.311-2.16
			c0.158-1.07,0.31-2.14,0.425-3.214c0.116-1.074,0.196-2.15,0.204-3.233c0.655-6.054,1.944-13.413,1.819-20.105
			c-0.016-0.836-0.051-1.666-0.106-2.491c0.53-0.92,1.003-1.859,1.418-2.815c4.927-9.599,3.118-20.575-3.495-30.599
			c-0.622-0.995-1.295-1.974-2.013-2.941c-0.309-0.861-0.577-1.726-0.796-2.597c-0.214-0.743-0.402-1.489-0.575-2.236
			c-0.215,0-0.428,0.006-0.641,0.015c-0.139,0.631-0.303,1.258-0.52,1.876c-0.428,0.753-0.884,1.502-1.363,2.246
			c-0.753,0.693-1.45,1.417-2.104,2.161c-0.656,0.744-1.271,1.505-1.862,2.263c-1.569,2.359-3.482,4.504-5.489,6.611
			c-0.413,0.36-0.847,0.715-1.407,1.085c-12.335,1.483-19.497,12.979-11.942,19.957c-2.751-2.084-5.028-4.709-6.515-7.325
			c-0.508,0.673-0.974,1.386-1.37,2.115c-1.584,2.916-2.035,6.002-0.226,8.747c2.035,3.602,3.818,3.731,5.726,2.484
			c0.639-0.417,1.291-0.988,1.972-1.635c10.401,4.639,26.689,0.523,24.88-10.454c0-4.116-7.239-6.86-10.859-6.86
			c-3.619,0-9.048,2.744-7.239,6.86c1.811,2.744,3.62,1.372,5.431,0c0,1.372-1.811,2.744-1.811,2.744
			c-5.429,0-7.24-4.116-5.429-6.86c1.809-2.744,5.429-2.744,9.048-4.117c7.24-1.372,10.859,4.117,12.669,6.86
			c3.62,6.86-5.429,12.349-12.774,15.057c-0.117,0.927-0.215,1.846-0.279,2.755c0.116,0.711,0.283,1.4,0.53,2.059
			c0.75,1.968,2.23,3.669,5.284,4.827c-0.604,0.914-1.205,1.791-1.774,2.643c-2.841,4.263-4.808,7.926-1.519,12.748
			c-0.107,0.804-0.225,1.609-0.341,2.415c-0.23,1.611-0.456,3.224-0.575,4.854c-0.047,0.651-0.078,1.305-0.085,1.963
			c0.471,5.815,2.387,11.593,0.969,16.898c-0.196,0.768-0.46,1.526-0.798,2.286c-0.39,0.87-0.814,1.717-1.276,2.541
			c-0.461,0.825-0.956,1.626-1.486,2.405c-0.724,0.766-1.412,1.523-2.072,2.271c-0.658,0.746-1.288,1.485-1.893,2.217
			c-0.906,0.549-1.643,1.135-2.248,1.754c-0.604,0.627-1.08,1.284-1.461,1.976c-0.401,0.563-0.762,1.131-1.087,1.704
			c-4.262,11.302-7.881,20.906-0.435,31.971c0.469,0.861,0.999,1.741,1.604,2.656c0.904-0.687,1.483-1.483,1.854-2.324
			c1.765-3.164-1.854-7.28,1.765-8.652c3.62-1.371,9.049-1.371,10.858,2.744c0,1.372,0,2.744-0.995,4.491
			c-0.195,0.937-0.436,1.917-0.713,2.898c-0.274,0.983-0.591,1.96-0.92,2.903c-0.31,0.949-0.576,1.895-0.77,2.828
			s-0.31,1.855-0.321,2.758c-0.101,1.004-0.181,2.012-0.252,3.021c-0.863,13.037-0.002,26.375,2.101,40.244
			c-0.313,0.939-0.644,1.889-0.978,2.826c-1.006,2.818-2.039,5.535-2.582,8.004c-1.809,15.092,5.43,31.557-1.002,48.311
			c-0.095,0.832-0.195,1.664-0.299,2.492c-0.205,1.664-0.424,3.326-0.643,4.988c-0.027,0.213-0.012,0.422,0.03,0.625
			c-0.216-0.055-0.452-0.117-0.625-0.158c-0.438-0.141-0.873-0.287-1.31-0.441c-0.247-0.092-0.493-0.189-0.739-0.295
			c-0.203-0.102-0.722-0.357-0.928-0.486c-0.125-0.08-0.249-0.166-0.373-0.252c-0.375-0.438-0.913-1.283-0.254-0.17
			c-0.001,0-0.003-0.002-0.004-0.002c-1.104-1.811-2.717-2.557-4.471-2.871c-1.069-0.191-2.486-0.264-3.839-0.012
			c-1.354,0.254-2.643,0.83-3.443,1.961c-0.478,0.662-0.952,1.459-1.396,2.34c-0.442,0.945-0.855,1.959-1.214,3.064
			c-0.378,0.846-0.708,1.736-0.979,2.656c-0.271,0.932-0.483,1.893-0.625,2.883c0.552,2.707,0.625,5.424,0.567,8.148
			c-0.019,0.93-0.053,1.861-0.089,2.816c-0.008,0.811-0.034,1.648-0.067,2.51c-0.03,0.861-0.068,1.742-0.104,2.639
			c0.018,1.963-0.041,3.916-0.088,5.852c-0.012,0.484-0.023,0.968-0.032,1.45s-0.016,0.964-0.02,1.45
			c-0.458,2.572-0.63,4.318,0.282,5.999c0.183,0.336,0.408,0.669,0.684,1.006c0.65,0.556,1.226,1.334,1.504,2.228
			c0.093,0.298,0.149,0.604,0.153,0.9c-0.089,0.496-0.216,0.926-0.351,1.282c-3.006,2.701-2.006,6.701-1.874,10.81
			c-0.151,0.424-0.272,0.841-0.366,1.254c-0.744,3.275,0.237,6.317,0.968,9.544c0.183,0.807,0.35,1.625,0.471,2.462
			c-0.044,1.207-0.124,2.431-0.194,3.664c-0.023,0.421-0.045,0.843-0.063,1.274c1.053,4.693-1.947,10.693,2.053,15.693
			c3-4,3-8,2.873-13.145c-0.03-0.49-0.05-0.943-0.058-1.403c-0.021-1.313,0.063-2.624,0.439-3.983
			c0.012-0.443,0.005-0.87-0.013-1.295c-0.227-4.501-1.735-8.745,2.142-12.79c0.093-0.466,0.157-0.943,0.222-1.422
			c-0.027-0.354-0.054-0.709-0.079-1.067c-0.526-3.895-1.526-8.895-1.87-13.395c0.188-0.347,0.402-0.693,0.626-1.042
			c0.896-1.396,1.947-2.82,2.1-4.396c0.164-0.463,0.34-0.929,0.526-1.398c0.187-0.471,0.385-0.945,0.594-1.426
			c0.069-0.502,0.147-1.004,0.234-1.507c0.027-0.965,0.08-1.895,0.188-2.805c0.109-0.906,0.275-1.799,0.519-2.666
			c0.07-0.949,0.213-1.834,0.426-2.703c0.213-0.867,0.496-1.723,0.867-2.572c0.215-0.918,0.463-1.793,0.76-2.658
			c0.892-2.508,2.232-4.881,4.473-7.014c0.946-0.521,2.024-0.875,3.276-1.027c2.117,1.535,4.6,2.59,7.251,3.209
			c0.883,0.205,1.785,0.365,2.698,0.475c1.526-0.123,2.776,0.006,3.812,0.322c1.043,0.328,1.871,0.844,2.557,1.496
			c0.729,0.68,1.282,1.402,1.71,2.154c0.429,0.754,0.729,1.537,0.956,2.34c-2.262,3.682-5.882,5.055-7.691,9.172
			c-1.811,6.859,9.049,12.348,16.287,9.602c1.811-1.369,1.811-6.857-1.809-4.113c-5.43,2.744-7.239,1.371-9.049-1.373v-6.861
			c3.619-4.115,7.238-6.857,13.651-5.951c2.883-0.193,3.19-0.99,3.324-1.846c0.267-1.713,0.282-3.512,0.003-5.453
			c0.191-0.965,0.376-1.912,0.572-2.814c0.197-0.9,0.406-1.756,0.645-2.539c0.34-1.059,0.557-2.09,0.67-3.139
			C480.511,589.119,479.747,586.16,477.712,583.588z M452.374,353.083c5.429,4.117-1.811,8.232-5.43,9.604
			c-4.797,1.454-9.584,0.198-13.603-2.296C440.679,363.833,452.374,360.994,452.374,353.083z"/>
	</g>
	<path d="M575.951,481.295c-0.002-0.005-0.003-0.01-0.005-0.016c-0.361-0.032-0.732-0.038-1.113-0.011
		c-0.096,0.008-0.193,0.016-0.289,0.024c-0.378-0.031-1,0.339-1.466,0.196c-0.099,0.016-0.195,0.03-0.282,0.031
		c-0.583-0.88-1.22-0.43-1.929,0.048c-0.078,0.053-0.158,0.106-0.239,0.158c-0.08,0.052-0.161,0.103-0.244,0.149
		c-0.247,0.142-0.503,0.254-0.768,0.289c-0.079,0.012-0.156,0.02-0.235,0.023c-0.385,0.011-0.774-0.058-1.196-0.229
		c-0.076,0.015-0.152,0.024-0.229,0.029c-1.002,0.401-1.002,0.401-1.431-0.508c-0.103-0.075-0.208-0.159-0.317-0.252
		c-0.103,0.001-0.2,0.007-0.297,0.014c-0.146,0.011-0.291,0.024-0.437,0.039c-1.064,0.077-2.363,0.1-3.618-0.001
		c-0.179-0.014-0.357-0.031-1.058-0.118c-0.172-0.025-0.342-0.054-0.508-0.085c-0.048-0.184-0.034-0.346,0.02-0.489
		c0.161-0.429,0.689-0.69,0.941-0.898c0.005-0.082,0.011-0.165,0.018-0.247c0.046-0.565,0.122-1.129,0.203-1.693
		c-0.232-0.291-0.403-0.624-0.514-0.981v0c-0.056-0.178-0.095-0.36-0.12-0.546c0,0,0,0,0,0c-0.024-0.186-0.034-0.372-0.028-0.56
		v-0.002c-0.688-0.701-1.134-1.586-1.038-2.695c0.121-1.427,0.777-2.556,1.341-3.838c0.199-0.453,0.544-0.786,0.951-1.028v0
		c0.508-0.903-1.148-1.829-1.976-0.903c0.62-0.74,1.449-0.37,1.974-0.222c0.136,0.081,0.196,0.084,0.261,0.095
		c0.649-0.243,0.922-0.798,1.077-1.354c0.018-0.062,0.021-0.127,0.014-0.195c-0.007-0.068-0.024-0.138-0.055-0.209
		c-0.58-1.076-2.236-1.261-3.064-0.521c-1.117,0.75-2.235,1.499-2.968,2.506c-0.037,0.072-0.067,0.122-0.098,0.175
		c-0.246,1.391-1.075,3.612,0.996,4.167c-0.208,0.092-0.363,0.231-0.521,0.379c-0.052,0.049-0.103,0.104-0.143,0.173
		c-1.2,1.299-0.579,2.779-0.236,4.215c-0.002,0.077-0.007,0.153-0.013,0.23c-0.025,0.307-0.078,0.613-0.121,0.903
		c-0.09,0.599-0.193,1.193-0.281,1.79c-0.012,0.085-0.025,0.17-0.036,0.255c-0.307,0.199-0.721,0.199-0.927,0.569
		c-0.208,0.37,0.206,0.555,0.62,0.74c0-0.37,0.415-0.185,0.621-0.185c-0.206,0.741-1.241,0.555-1.764,0.317
		c-0.1-0.058-0.15-0.058-0.196-0.048c-0.751,0.284-1.403,0.764-2.038,1.204c-0.207,0.144-0.406,0.294-0.608,0.442
		c-0.021,0.011-0.082,0.049-0.189,0.117c-0.048,0.03-0.083,0.053-0.111,0.072c-0.012,0.003-0.024,0.007-0.039,0.011
		c-0.034-0.009-0.1-0.027-0.212-0.071c-0.195-0.076-0.358-0.189-0.518-0.309c-0.054-0.04-0.106-0.079-0.161-0.109
		c-0.234,0.13-0.441,0.203-0.628,0.229c-0.186,0.027-0.349,0.01-0.498-0.041c-0.595-0.201-0.944-0.921-1.439-1.354
		c-0.079-0.06-0.156-0.123-0.233-0.188c-0.062-0.019-0.125-0.032-0.187-0.044c-0.064-0.007-0.128-0.014-0.192-0.019
		c-0.085-0.007-0.171-0.012-0.256-0.016c-1.08,0.547-1.701,0.917-2.861,0.392c-0.074,0.069-0.149,0.136-0.227,0.194
		c-1.119,0.965-2.806,0.238-3.582,1.626c-0.62,0.741-0.62,1.666,0.17,2.148c0.062,0.045,0.128,0.084,0.198,0.119
		c0.282,0.138,0.629,0.188,1.018,0.106c0.172-0.036,0.346-0.076,0.521-0.119c0.087-0.021,0.175-0.044,0.261-0.075
		c0.317-0.144,0.524-0.328,0.524-0.698c1.346,0,2.584,0.386,3.635,1.019c0.082,0.049,0.161,0.1,0.24,0.149
		c0.222,0.125,0.452,0.218,0.689,0.286c0.082,0.013,0.165,0.023,0.25,0.023c0.982-0.182,1.811-0.923,2.649-0.198
		c0.067,0.083,0.141,0.146,0.213,0.199c0.42,0.307,0.753,0.339,1.143,0.216c0.079-0.024,0.159-0.056,0.243-0.092
		c0.498-0.287,1.015-0.562,1.544-0.778c0.087-0.036,0.176-0.07,0.264-0.104c0.096,0.032,0.188,0.061,0.284,0.106
		c0.143,0.14,0.29,0.282,0.44,0.415c0.075,0.066,0.15,0.131,0.228,0.191c0.074,0.078,0.148,0.161,0.225,0.245
		c-0.015,0.062-0.02,0.117-0.113,0.268c-0.548,0.09,0.28,0.46-0.134,0.645c0.343,0.307,0.757,0.548,1.167,0.645
		c0.206,0.049,0.411,0.061,0.609,0.026c0.438,0.534,0.438,0.534-0.48,0.387c-0.119,0.035-0.239,0.066-0.357,0.095
		c-0.12,0.036-0.125,0.101-0.132,0.168c-0.041,0.34-0.185,0.777-0.185,1.085v-0.185c0,0.771-0.287,1.414-0.267,2.127
		c0.005,0.143,0.021,0.288,0.055,0.438c-0.196,0.418,0.804,1.418,0.738,1.529c0.01,0.148,0.019,0.299,0.027,0.452
		c0.045,0.763,0.079,1.559,0.282,2.167c-0.052,0.135-0.103,0.267-0.15,0.398c-0.339,0.916-0.579,1.774-0.628,2.772
		c-0.036,0.73,0.102,1.465,0.216,2.194c0.013,0.081,0.025,0.162,0.036,0.242c0.013,0.081,0.024,0.162,0.034,0.242
		c0.011,0.081,0.021,0.162,0.029,0.242c0.007,0.059,0.015,0.114,0.025,0.168c0.019,0.076,0.039,0.153,0.064,0.239
		c0.572,0.855,0.572,2.521,1.606,2.521c0.249,0,0.404-0.133,0.516-0.339c0.037-0.069,0.068-0.146,0.097-0.228
		c0.332-0.864,0.275-1.849,0.337-2.771c0.005-0.083,0.012-0.167,0.02-0.249c0.066-0.116,0.066-0.486,0.066-0.486
		c1.036-0.37,0.414,0.74,0.746,0.866c0.035,0.058,0.076,0.11,0.13,0.155c0.055,0.045,0.12,0.081,0.203,0.106
		c0.06-0.028,0.114-0.088,0.164-0.153c0.696-1.13,0.66-2.356,0.631-3.598c-0.062-0.015-0.122-0.035-0.184-0.055
		c0.045,0.185,0.058,0.35-0.177,0.406c-0.009-0.078-0.017-0.156-0.025-0.234s-0.017-0.156-0.023-0.234c0-0.004,0-0.007-0.001-0.011
		c-0.305-0.133-0.594-0.325-0.851-0.556c-0.085-0.077-0.167-0.159-0.244-0.244c0.373-0.709,0.399-1.404,0.275-2.089
		c-0.03-0.171-0.07-0.342-0.115-0.513c0.479-0.763,0.219-1.644-0.123-2.54c-0.066-0.179-0.137-0.359-0.199-0.54
		c0.101-0.191,0.168-0.398,0.211-0.616c0.021-0.109,0.036-0.221,0.046-0.336c0.023-2.494,1.023-4.494,1.785-5.286
		c0.094-0.134,0.194-0.257,0.305-0.368c0.22-0.223,0.477-0.399,0.785-0.511c0.196,0,0.398,0.014,0.603,0.045
		c0.108-0.009,0.218-0.022,0.328-0.04c0.222-0.035,0.448-0.088,0.679-0.166c0.181-0.049,0.36-0.094,0.539-0.136
		c1.095-0.256,2.163-0.368,3.178-0.06c0.146,0.044,0.289,0.096,0.432,0.158c0.049,0.108,0.123,0.219,0.213,0.332
		s0.196,0.227,0.31,0.343c0.86,0.058,1.192,0.459,1.29,0.992c0.033,0.178,0.039,0.37,0.03,0.569
		c-0.452,1.634-0.452,2.634,0.548,3.634c-1-1,2-1,1.157-2.26c0.089-0.132,0.176-0.262,0.259-0.398
		c0.416-0.658,0.748-1.473,0.913-2.604c0.097-0.002,0.185-0.002,0.267,0c0.408,0.206,0.822-0.534,1.03-0.35
		c0.248,0.297,0.497,0.593,0.777,0.826c0.07,0.058,0.142,0.112,0.222,0.15c0.373,0.034,0.678-0.034,0.947-0.146
		c0.515-0.386,0.96-0.816,1.229-1.304c0-0.073-0.006-0.144,0-0.219C577.373,483.735,576.125,481.75,575.951,481.295z
		 M557.826,486.627c-0.142-0.044-0.301-0.066-0.45-0.066c-0.15,0-0.29,0.023-0.393,0.069c-0.621,0.555,0.206,0.37,0.414,0.555
		c-0.621,0.371-1.035,0-0.829-0.37c0.069-0.185,0.253-0.328,0.475-0.41c0.11-0.041,0.231-0.066,0.398-0.043
		c0.084,0.011,0.179,0.035,0.684,0.254C558.044,486.596,557.948,486.595,557.826,486.627z"/>
</g>
</svg>
